<svg xmlns="http://www.w3.org/2000/svg" version="1.1" xmlns:xlink="http://www.w3.org/1999/xlink" xmlns:svgjs="http://svgjs.dev/svgjs" width="128" height="128" viewBox="0 0 128 128"><g transform="matrix(0.8046875,0,0,0.8046875,12.411840748212605,12.814873242367192)"><svg viewBox="0 0 98 98" data-background-color="#f0eadc" preserveAspectRatio="xMidYMid meet" height="127" width="128" xmlns="http://www.w3.org/2000/svg" xmlns:xlink="http://www.w3.org/1999/xlink"><g id="tight-bounds" transform="matrix(1,0,0,1,0.0838796764579115,0.0838796764579115)"><svg viewBox="0 0 97.83224064708416 97.83224064708416" height="97.83224064708416" width="97.83224064708416"><g><svg></svg></g><g><svg viewBox="0 0 97.83224064708416 97.83224064708416" height="97.83224064708416" width="97.83224064708416"><g><path d="M0 48.916c0-27.016 21.9-48.916 48.916-48.916 27.016 0 48.916 21.9 48.916 48.916 0 27.016-21.9 48.916-48.916 48.916-27.016 0-48.916-21.9-48.916-48.916zM48.916 93.244c24.481 0 44.328-19.846 44.328-44.328 0-24.481-19.846-44.328-44.328-44.327-24.481 0-44.328 19.846-44.327 44.327 0 24.481 19.846 44.328 44.327 44.328z" data-fill-palette-color="tertiary" fill="#2ea673" stroke="transparent"></path><ellipse rx="46.9594755106004" ry="46.9594755106004" cx="48.91612032354208" cy="48.91612032354208" fill="#2ea673" stroke="transparent" stroke-width="0" fill-opacity="1" data-fill-palette-color="tertiary"></ellipse></g><g transform="matrix(1,0,0,1,27.260435469862678,23.475393915029343)"><svg viewBox="0 0 43.31136970735881 50.881452817025476" height="50.881452817025476" width="43.31136970735881"><g><svg viewBox="0 0 43.31136970735881 50.881452817025476" height="50.881452817025476" width="43.31136970735881"><g><svg viewBox="0 0 43.31136970735881 50.881452817025476" height="50.881452817025476" width="43.31136970735881"><g id="textblocktransform"><svg viewBox="0 0 43.31136970735881 50.881452817025476" height="50.881452817025476" width="43.31136970735881" id="textblock"><g><svg viewBox="0 0 43.31136970735881 50.881452817025476" height="50.881452817025476" width="43.31136970735881"><g><svg viewBox="0 0 43.31136970735881 50.881452817025476" height="50.881452817025476" width="43.31136970735881"><g><svg version="1.1" xmlns:rdf="http://www.w3.org/1999/02/22-rdf-syntax-ns#" xmlns:dc="http://purl.org/dc/elements/1.1/" xmlns:cc="http://creativecommons.org/ns#" xmlns:svg="http://www.w3.org/2000/svg" xmlns="http://www.w3.org/2000/svg" xmlns:xlink="http://www.w3.org/1999/xlink" x="0" y="0" viewBox="7.375 1.5251372398305363 85.12199999999999 99.99986276016946" enable-background="new 7.374 1.525 85.122 100" xml:space="preserve" id="icon-0" width="43.31136970735881" height="50.881452817025476" class="icon-icon-0" data-fill-palette-color="quaternary"><path d="M25.733 5.744C25.502 6.151 30.655 16.025 36.219 26.176 38.698 20.578 43.796 17.566 49.822 17.601 55.552 17.635 60.62 20.302 63.178 25.487 68.69 15.743 73.718 6.464 73.499 6.066 56.229-0.68 40.94 0.841 25.733 5.744" fill="#f0eadc" data-fill-palette-color="quaternary"></path><path d="M49.937 20.432C42.711 20.394 36.844 26.182 36.806 33.349V33.456C36.822 39.756 41.36 45 47.375 46.16L47.523 101.525 52.967 97.971 52.82 46.054C58.592 44.729 62.928 39.626 62.962 33.492 63 26.324 57.163 20.469 49.937 20.432" fill="#f0eadc" data-fill-palette-color="quaternary"></path><path d="M79.71 38.612C79.336 39.686 74.523 48.984 71.169 49.039 66.988 47.202 68.596 43.062 68.5 43.06 63.125 42.969 54.06 58.468 54.266 61.208 54.478 63.987 76.772 66.703 77.113 64.446 77.133 64.315 73.301 61.619 74.942 58.397 77.789 55.465 87.804 59.835 88.287 59.998 88.436 60.049 87.404 57.377 86.205 54.08 84.84 50.327 91.378 46.597 92.497 43.996 89.809 44.319 83.606 44.815 82.008 43.64 79.479 41.784 79.759 38.474 79.71 38.612" fill="#f0eadc" data-fill-palette-color="quaternary"></path><path d="M20.16 51.01C20.535 52.084 25.347 61.382 28.701 61.437 32.882 59.599 31.275 55.46 31.37 55.458 36.745 55.366 45.812 70.867 45.604 73.606 45.393 76.386 23.099 79.101 22.758 76.844 22.738 76.713 26.57 74.018 24.929 70.794 22.082 67.863 12.066 72.234 11.584 72.396 11.435 72.446 12.468 69.776 13.667 66.479 15.032 62.726 8.494 58.996 7.375 56.395 10.063 56.717 16.266 57.214 17.865 56.038 20.39 54.181 20.112 50.871 20.16 51.01" fill="#f0eadc" data-fill-palette-color="quaternary"></path></svg></g></svg></g></svg></g></svg></g></svg></g><g></g></svg></g></svg></g></svg></g><defs></defs></svg><rect width="97.83224064708416" height="97.83224064708416" fill="none" stroke="none" visibility="hidden"></rect></g></svg></g></svg>